inDegrees=no
num_controls=7
num_derivatives=13
num_iterations=154
num_multipliers=7
num_parameters=0
num_slacks=7
num_states=26
objective=0.468781
objective_accelerations=0.064456
objective_balance=0.002104
objective_effort=0.020593
objective_height=0.372163
objective_ligament=0.009465
solver_duration=2059.243843
status=Solve_Succeeded
success=true
DataType=double
version=3
OpenSimVersion=4.5
endheader
time	/jointset/ground_pelvis/pelvis_tilt/value	/jointset/ground_pelvis/pelvis_tx/value	/jointset/ground_pelvis/pelvis_ty/value	/jointset/hip_l/hip_flexion_l/value	/jointset/hip_l/hip_adduction_l/value	/jointset/hip_l/hip_rotation_l/value	/jointset/back/lumbar_extension/value	/jointset/patellofemoral_l/patellar_flexion_l/value	/jointset/knee_l/knee_flexion_l/value	/jointset/knee_l/knee_adduction_l/value	/jointset/knee_l/knee_rotation_l/value	/jointset/ankle_l/ankle_angle_l/value	/jointset/subtalar_l/subtalar_angle_l/value	/jointset/ground_pelvis/pelvis_tilt/speed	/jointset/ground_pelvis/pelvis_tx/speed	/jointset/ground_pelvis/pelvis_ty/speed	/jointset/hip_l/hip_flexion_l/speed	/jointset/hip_l/hip_adduction_l/speed	/jointset/hip_l/hip_rotation_l/speed	/jointset/back/lumbar_extension/speed	/jointset/patellofemoral_l/patellar_flexion_l/speed	/jointset/knee_l/knee_flexion_l/speed	/jointset/knee_l/knee_adduction_l/speed	/jointset/knee_l/knee_rotation_l/speed	/jointset/ankle_l/ankle_angle_l/speed	/jointset/subtalar_l/subtalar_angle_l/speed	/forceset/tau_hip_flexion_l	/forceset/tau_hip_adduction_l	/forceset/tau_hip_rotation_l	/forceset/tau_knee_flexion_l	/forceset/tau_ankle_angle_l	/forceset/tau_subtalar_angle_l	/forceset/tau_lumbar_extension	lambda_cid13_p0	lambda_cid13_p1	lambda_cid13_p2	lambda_cid13_p3	lambda_cid13_p4	lambda_cid13_p5	lambda_cid14_p0	/jointset/ground_pelvis/pelvis_tilt/accel	/jointset/ground_pelvis/pelvis_tx/accel	/jointset/ground_pelvis/pelvis_ty/accel	/jointset/hip_l/hip_flexion_l/accel	/jointset/hip_l/hip_adduction_l/accel	/jointset/hip_l/hip_rotation_l/accel	/jointset/back/lumbar_extension/accel	/jointset/patellofemoral_l/patellar_flexion_l/accel	/jointset/knee_l/knee_flexion_l/accel	/jointset/knee_l/knee_adduction_l/accel	/jointset/knee_l/knee_rotation_l/accel	/jointset/ankle_l/ankle_angle_l/accel	/jointset/subtalar_l/subtalar_angle_l/accel	gamma_cid13_p0	gamma_cid13_p1	gamma_cid13_p2	gamma_cid13_p3	gamma_cid13_p4	gamma_cid13_p5	gamma_cid14_p0
0	0.0518284581896367	0.1059796903050617	0.9043867604168437	0.1266922784136757	-0.3571427913763649	-0.2413802503238809	-0.2144969558742783	0.2051545070141888	0.2051545070141877	-0.1474256007902343	-0.1697405292885729	0.09024313228550125	0.09323200445496835	0	0	0	0	0	0	0	0	0	0	0	0	0	0.1187838193257527	-0.06650613644701035	-0.006637646210729904	-0.2168329182995336	0.09581406231583313	-0.04737897809399799	-0.05655228152356393	0.4955808769154555	19.12250043969447	-1.767740593169304	18.75814669471333	-450.0863021454203	-75.21935409914218	-26.37826531643037	-6.27090757976559	-2.554659196046027	-0.8974476625505838	14.7361854266139	-0.01181852258191665	2.50607325753335	-4.051020882056643	7.448165896524099	7.448165896523007	1.871690383696314	-0.4516803790579698	-0.3359103427579141	-0.1489365563167268	7.686458894495633e-09	1.985845840764861e-07	-4.254538035006332e-08	1.440219029338542e-08	3.769803613361744e-08	7.543025162891011e-08	2.837482892599635e-08
0.01	0.05152501074702764	0.1058531079889331	0.9043431672809948	0.1274109765579329	-0.3571427428328073	-0.2412521506763302	-0.2147038786348497	0.2055169290047764	0.2055169290047751	-0.147333667766918	-0.1697565244041907	0.0902244214406928	0.09322462054059333	-0.06042289272064499	-0.02523785373452859	-0.008692378048122019	0.1431331630417161	9.699392820650601e-06	0.02552530673417072	-0.04106523724776297	0.07213362955708637	0.07213362955708208	0.01828613355946081	-0.003154228193335491	-0.003786197256702675	-0.001489352884462412	0.1145576185471253	-0.07252633049268695	-0.005871068969451903	-0.2115767513889387	0.08737556302305437	-0.03936110456323084	-0.053221487141957	-1.707202521449936	15.72739856595242	-0.8853595933483861	19.60046700615986	-450.2494700829395	-81.70621877464777	-26.3780675006825	-5.887990857795087	-2.496554158079097	-0.8511879680873738	14.0109120213819	0.007336507183899141	2.561578980292993	-4.086377916116866	7.043340526277326	7.043340526277485	1.792033979658933	-0.2405867338757321	-0.4065720754048602	-0.1508464604018604	4.168289374163937e-09	2.759947462457396e-07	-2.629937566214582e-08	2.374687908235459e-08	-9.976844102188165e-08	5.938827366425547e-08	4.224886359643295e-08
0.02	0.0506253322292946	0.1054765059962746	0.904213439346236	0.1295428123882939	-0.3571426028279278	-0.2408716340416523	-0.2153118743218954	0.2065901630991305	0.2065901630991311	-0.147061881580496	-0.1698027203406206	0.09016652909166116	0.09320196073619552	-0.1192462150245313	-0.05000393530597895	-0.01722695978203807	0.2826275372206883	1.829226443355099e-05	0.05048339742570389	-0.0802145852947532	0.1421624207532294	0.1421624207532311	0.03597063262244119	-0.006040164162846948	-0.007836300844542244	-0.00305517800455909	0.1103314177685131	-0.07854652453835542	-0.005104491728184339	-0.2063205844783338	0.07893706373028095	-0.03134323103245309	-0.0498906927603433	-3.876413245985972	12.33202903393372	-0.00934602628873784	20.52725524909171	-449.734684251623	-88.05749026405087	-26.37732233153489	-5.950993496413822	-2.460304763430395	-0.8658883997093882	14.0084276540651	-0.012039826823468	2.392630049005839	-3.667843041902081	7.02719822433543	7.027198224336397	1.751363484400226	-0.3980219342931667	-0.3886916089853072	-0.1642310034435861	6.501198538322403e-10	3.53404908414993e-07	-1.005337097422833e-08	3.309156787132375e-08	-2.372349181773807e-07	4.334629569960082e-08	5.612289826686954e-08
0.03	0.04914450667565742	0.1048549978437791	0.903998822555185	0.1330521398117871	-0.3571424548397349	-0.2402449347237838	-0.2163013903938834	0.2083536703190072	0.2083536703190025	-0.1466163878430657	-0.1698770279528145	0.09006741387481815	0.09316337570686202	-0.1766776223889436	-0.07417656670760295	-0.02569443003198892	0.4186040384204164	2.115879417317823e-06	0.07476346664769982	-0.1173975984611654	0.2101897557541296	0.2101897557541213	0.05299486153257658	-0.008765134840118066	-0.01198127469740349	-0.004668888070493139	0.1069631560671379	-0.0749533106356939	-0.004695521116829594	-0.2040083251727949	0.0783999370684428	-0.03336174186973254	-0.04719273706164644	-4.094599435537543	13.22079521176195	-0.1212541481438763	20.00786998129599	-448.9507139166353	-85.54554111230287	-26.375831828912	-5.603018377167237	-2.377566399667762	-0.8369290806160663	13.29717624770583	0.002160545563689654	2.431758107934644	-3.69987585772764	6.638099737232988	6.638099737230837	1.658025569571409	-0.2013114026397042	-0.4265662059713547	-0.1610547620497002	-4.439543946478458e-09	3.736736685795227e-07	2.909710226174165e-09	3.935327910746632e-08	-3.462885426346452e-07	1.964273967797323e-08	6.196680519810846e-08
0.04	0.04709660624423282	0.1039953985630395	0.9036995805130389	0.1379022152262329	-0.3571427551974112	-0.2393782221638677	-0.217654005678279	0.2107869706087403	0.2107869706087378	-0.1460046372214834	-0.1699769006254289	0.08992701573293954	0.09310843082609292	-0.2326611905818433	-0.09762216095480887	-0.03415201000107627	0.5507771354113105	-7.137690942335337e-05	0.09848604583522211	-0.1528344277762493	0.2761210347256567	0.2761210347256316	0.06922200945276033	-0.01115317624521369	-0.01609288585165759	-0.00632714829168274	0.1035948943657626	-0.07136009673303192	-0.004286550505427857	-0.201696065867263	0.07786281040660387	-0.03538025270701236	-0.04449478136294888	-4.282683781695935	14.10934626454885	-0.2389036945227735	19.56642493561381	-447.5595427045126	-82.90801410530841	-26.3731884176553	-5.661425662111257	-2.314897332546792	-0.8639103435366886	13.24774681229828	-0.02350310758835636	2.281132042111107	-3.31860627163641	6.607987018460814	6.607987018460422	1.591947286409894	-0.3306360798580709	-0.3820190692638903	-0.173141034494702	-9.561609690706251e-09	3.927642555068415e-07	1.580510228250419e-08	4.555142379612793e-08	-4.54756335077513e-07	-4.218787025241437e-09	6.764514248524019e-08
0.05	0.04449547621104882	0.1029048249450601	0.9033155461882828	0.1440563294290351	-0.3571439332493911	-0.2382781293661908	-0.2193515729915047	0.2138699012088085	0.2138699012088067	-0.1452341715573945	-0.1701001204434593	0.08974573213428337	0.09303687079871849	-0.2873121862700564	-0.1203829517157607	-0.04266958570548675	0.6794204625533203	-0.0001610841880179983	0.1214241489044539	-0.1863948183523479	0.3401222278776687	0.3401222278776379	0.08475301529656312	-0.01343909965069905	-0.0201700681309252	-0.007981890700753454	0.0993038412270688	-0.07076241139066741	-0.00366144417053244	-0.1985493584336004	0.07534358473990484	-0.03406577787877575	-0.04126064845782478	-4.892091387506372	13.55557806022893	-0.04827889410348047	19.32214983676599	-446.0213524427522	-83.13092203940136	-26.36896923118201	-5.329033140130372	-2.240219148733597	-0.8479826249687077	12.57884131954508	-0.001295858350555648	2.283904993737562	-3.33212297308856	6.244743277129996	6.244743277129445	1.516032434048545	-0.1698244788540239	-0.4214869057150038	-0.1612595667665552	-1.138257212218091e-08	3.751711111415177e-07	1.102864464569831e-08	4.753531986383061e-08	-5.079478444350911e-07	-1.958095862744841e-08	6.939173448241368e-08
0.06	0.04135541689739098	0.1015899335792982	0.9028458758182676	0.1514781200341359	-0.3571459266382278	-0.23695190442694	-0.2213762177149898	0.217582555303108	0.2175825553031081	-0.1443119247947311	-0.1702446502971371	0.08952349289314311	0.09294883960272267	-0.3404470466764268	-0.1424857105112884	-0.05127921905292823	0.8043124158710392	-0.0002344442808341006	0.1437124741500195	-0.2182499098281236	0.4020657335720246	0.4020657335719923	0.0995782291676888	-0.01541518337459466	-0.0242840143484652	-0.009621382015956194	0.09501278808838123	-0.07016472604830268	-0.003036337835634624	-0.195402650999937	0.07282435907320586	-0.03275130305053889	-0.03802651555269513	-5.475125990978612	13.00240193139419	0.1362999304763061	19.14990225354429	-443.9469460194291	-83.23677823917224	-26.36257581897496	-5.358198605742678	-2.183290939461993	-0.8823218721428855	12.49747204744006	-0.02023367043264882	2.15117647737788	-2.977546451571818	6.196449526929611	6.196449526930039	1.450788891874473	-0.268668143540123	-0.3893718569183789	-0.1700908157211126	-1.30645407299607e-08	3.560333886165037e-07	5.508109127076193e-09	4.934177388433502e-08	-5.588119313469729e-07	-3.458526264645504e-08	7.097277930948367e-08
0.07000000000000001	0.03769073921658809	0.1000573253870384	0.9022894008866182	0.1601314263157546	-0.3571485664801345	-0.2354067144251969	-0.2237101407975835	0.2219051752534326	0.2219051752534341	-0.1432447907953316	-0.1704082528507347	0.08926019832563291	0.09284458815371734	-0.3922383575003121	-0.1639198987423288	-0.0600444465754219	0.925719419672868	-0.0002908087304055817	0.1652281080681899	-0.2482589498933321	0.4621141355181406	0.4621141355181153	0.1137188485112743	-0.01723735634619291	-0.02837618720342536	-0.01122494776890865	0.0904489953029952	-0.06867074868720591	-0.002400368824188487	-0.1926370992906459	0.07136737965702429	-0.03222915510504405	-0.0346597510574883	-5.757762032871348	12.77570951980652	0.22888046286538	18.68567608976456	-441.8316123180712	-82.60873638240416	-26.35340445595344	-5.052066164635646	-2.106068494954635	-0.8780374659949352	11.86790443026604	0.002012261991610498	2.137155719263654	-2.971219264378139	5.857403168500449	5.857403168501238	1.376305227960694	-0.1288048345703733	-0.4193181770707854	-0.1549516297763781	-1.320970262926625e-08	2.982135396978135e-07	-8.859829672112433e-09	4.713107891207539e-08	-5.710076901938446e-07	-4.822810488552068e-08	6.750639742062718e-08
0.08	0.03351565465876079	0.09831385816646222	0.9016443908250056	0.1699799206121339	-0.3571516999476946	-0.2336492883102267	-0.226335881576906	0.22681795275123	0.226817952751231	-0.1420401292480248	-0.1705880397261645	0.08895594639411589	0.09272440861224367	-0.4425284220811617	-0.1846575161745594	-0.0689862450456145	1.043350018823166	-0.0003331694115367236	0.186159696795442	-0.2766134491738497	0.520097243066171	0.5200972430661506	0.127083738749264	-0.01865204774181931	-0.03247548714982357	-0.01280700050962385	0.08588520251761483	-0.06717677132610968	-0.001764399812763522	-0.1898715475813503	0.06991040024084329	-0.03170700715954933	-0.03129298656227677	-6.017786002127813	12.55003189430085	0.3156172673659605	18.2872513531809	-439.2540824069059	-81.87362290389417	-26.34069298679941	-5.057949357135488	-2.043976779700027	-0.9176360616826699	11.74219111713386	-0.01743291674458209	2.034367439194217	-2.646638294633653	5.783390647312483	5.783390647312472	1.295643070755331	-0.187171828345754	-0.3907972752060024	-0.1657882132736676	-1.325571570867024e-08	2.378980697214668e-07	-2.379856868295049e-08	4.46612130370568e-08	-5.807087181978126e-07	-6.178311088071912e-08	6.371437509848512e-08
0.09	0.02884435011850218	0.09636646571983137	0.9009088750125411	0.1809873013271688	-0.3571551150750875	-0.2316864569295497	-0.2292361692961886	0.232301176119315	0.2323011761193116	-0.1407053105314325	-0.1707811437557097	0.08861092573461048	0.09258868813630525	-0.4914828553341861	-0.2047037134408182	-0.07815537685337387	1.15750327923843	-0.0003405002465168365	0.2062958615489411	-0.303178187039548	0.5762120337089406	0.576212033708916	0.1397602382918816	-0.01991058399175025	-0.03652639744290003	-0.01432460565611049	0.08098669665993391	-0.06588777480976571	-0.001094615264540524	-0.1872017734309372	0.06865961211683977	-0.03081029964246983	-0.02774590337962626	-6.187679093489366	12.15259175985863	0.4220964373502204	17.75270137402637	-436.7292801819952	-81.44454121421143	-26.32370616478023	-4.77673319087011	-1.967343351175587	-0.9224369497637398	11.15847066695754	0.008984381628818507	1.986646350540883	-2.621505386045132	5.475201064947075	5.475201064946423	1.235731159101031	-0.08647973618362202	-0.4118901069020468	-0.142906653265637	-1.127519101327675e-08	1.41522937892384e-07	-5.038929745860781e-08	3.782089372388914e-08	-5.582861761082813e-07	-7.377997200061321e-08	5.595072594081981e-08
